#N canvas 127 45 1447 762 10;
#X declare -stdlib zexy;
#X obj 58 441 pddp/print;
#X obj 34 514 biquad~;
#X obj 34 218 filterview;
#X msg 126 172 highshelf;
#X msg 73 148 allpass;
#X msg 126 148 bandpass;
#X msg 186 148 highpass;
#X msg 192 172 lowpass;
#X msg 246 172 lowshelf;
#X msg 167 194 notch;
#X msg 209 194 peaking;
#X msg 263 194 resonant;
#X text 217 124 choose a filter type:;
#X floatatom 34 69 0 0 0 0 - - -;
#X floatatom 85 69 0 0 0 0 - - -;
#X obj 85 92 trigger bang float;
#X obj 37 24 hsl 128 17 20 20000 1 0 empty empty frequency 5 9 0 10
-203904 -1 -1 0 0;
#X obj 88 47 hsl 128 17 0 100 0 0 empty empty bandwidth 5 9 0 10 -261682
-1 -1 0 1;
#X obj 34 125 ggee/notch;
#X text 348 179 FIR filters;
#X obj 653 17 zexy;
#X obj 519 17 declare -stdlib zexy;
#X text 475 173 !st order allpass;
#X msg 348 202 0 0 0.5 0.5 0;
#X msg 348 226 0 0 0.25 0.5 0.25;
#X obj 34 544 output~;
#X connect 1 0 25 0;
#X connect 2 0 0 0;
#X connect 2 0 1 0;
#X connect 3 0 2 0;
#X connect 4 0 2 0;
#X connect 5 0 2 0;
#X connect 6 0 2 0;
#X connect 7 0 2 0;
#X connect 8 0 2 0;
#X connect 9 0 2 0;
#X connect 10 0 2 0;
#X connect 11 0 2 0;
#X connect 13 0 18 0;
#X connect 14 0 15 0;
#X connect 15 0 18 0;
#X connect 15 1 18 1;
#X connect 16 0 13 0;
#X connect 17 0 14 0;
#X connect 18 0 2 0;
#X connect 23 0 2 0;
#X connect 24 0 2 0;
