#N canvas 223 208 634 444 10;
#X obj 246 46 noise~;
#X obj 257 381 dac~;
#X obj 291 253 vsl 15 100 0 1 0 0 empty empty empty 0 -9 0 10 -262144
-1 -1 0 1;
#X obj 258 337 *~;
#X obj 89 99 vsl 15 100 0 1 0 0 empty empty empty 0 -9 0 10 -262144
-1 -1 0 1;
#X obj 62 182 *~;
#X obj 201 97 vsl 15 100 0 1 0 0 empty empty empty 0 -9 0 10 -262144
-1 -1 0 1;
#X obj 174 180 *~;
#X obj 323 96 vsl 15 100 0 1 0 0 empty empty empty 0 -9 0 10 -262144
-1 -1 0 1;
#X obj 299 181 *~;
#X obj 429 99 vsl 15 100 0 1 0 0 empty empty empty 0 -9 0 10 -262144
-1 -1 0 1;
#X obj 404 181 *~;
#X obj 174 224 lop~ 500;
#X obj 299 225 lop~ 1000;
#X obj 62 226 lop~ 50;
#X msg 432 50 \; pd dsp 1 \;;
#X msg 502 50 \; pd dsp 0 \;;
#X text 150 334 signal multiplier;
#X text 310 330 volume level;
#X text 429 82 digital signal processing on/off;
#X text 289 375 digital to analog converter;
#X text 293 386 audio output;
#X text 22 154 volume level;
#X text 134 153 volume level;
#X text 259 155 volume level;
#X text 367 165 volume level;
#X text 42 242 low pass filter;
#X text 402 244 high pass filter;
#X obj 404 225 hip~ 5000;
#X obj 22 -4 cnv 15 600 40 empty empty Subtractive_(noise)_synth 20
12 0 14 -33173 -262144 0;
#X connect 0 0 5 0;
#X connect 0 0 7 0;
#X connect 0 0 9 0;
#X connect 0 0 11 0;
#X connect 2 0 3 1;
#X connect 3 0 1 1;
#X connect 3 0 1 0;
#X connect 4 0 5 1;
#X connect 5 0 14 0;
#X connect 6 0 7 1;
#X connect 7 0 12 0;
#X connect 8 0 9 1;
#X connect 9 0 13 0;
#X connect 10 0 11 1;
#X connect 11 0 28 0;
#X connect 12 0 3 0;
#X connect 13 0 3 0;
#X connect 14 0 3 0;
#X connect 28 0 3 0;
