#N canvas 795 62 642 436 10;
#X obj 246 46 noise~;
#X obj 291 253 vsl 15 100 0 1 0 0 empty empty empty 0 -9 0 10 -262144
-1 -1 0 1;
#X obj 258 337 *~;
#X obj 89 99 vsl 15 100 0 1 0 0 empty empty empty 0 -9 0 10 -262144
-1 -1 0 1;
#X obj 62 182 *~;
#X obj 201 97 vsl 15 100 0 1 0 0 empty empty empty 0 -9 0 10 -262144
-1 -1 0 1;
#X obj 174 180 *~;
#X obj 323 96 vsl 15 100 0 1 0 0 empty empty empty 0 -9 0 10 -262144
-1 -1 0 1;
#X obj 299 181 *~;
#X obj 429 99 vsl 15 100 0 1 0 0 empty empty empty 0 -9 0 10 -262144
-1 -1 0 1;
#X obj 404 181 *~;
#X obj 174 224 lop~ 500;
#X obj 299 225 lop~ 1000;
#X obj 62 226 lop~ 50;
#X text 150 334 signal multiplier;
#X text 310 330 volume level;
#X text 324 388 audio output;
#X text 22 154 volume level;
#X text 134 153 volume level;
#X text 259 155 volume level;
#X text 367 165 volume level;
#X text 42 242 low pass filter;
#X text 402 244 high pass filter;
#X obj 404 225 hip~ 5000;
#X obj 22 -4 cnv 15 600 40 empty empty Subtractive_(noise)_synth 20
12 0 14 -33173 -262144 0;
#X obj 258 376 output~;
#X msg 595 43 0;
#X text 590 65 Reset;
#X connect 0 0 4 0;
#X connect 0 0 6 0;
#X connect 0 0 8 0;
#X connect 0 0 10 0;
#X connect 1 0 2 1;
#X connect 2 0 25 0;
#X connect 2 0 25 1;
#X connect 3 0 4 1;
#X connect 4 0 13 0;
#X connect 5 0 6 1;
#X connect 6 0 11 0;
#X connect 7 0 8 1;
#X connect 8 0 12 0;
#X connect 9 0 10 1;
#X connect 10 0 23 0;
#X connect 11 0 2 0;
#X connect 12 0 2 0;
#X connect 13 0 2 0;
#X connect 23 0 2 0;
#X connect 26 0 3 0;
#X connect 26 0 5 0;
#X connect 26 0 7 0;
#X connect 26 0 9 0;
#X connect 26 0 1 0;
