#N canvas 917 218 530 581 12;
#X obj 19 19 loadbang;
#X msg 19 46 poll;
#X msg 65 47 nopoll;
#X obj 20 104 tgl 15 0 empty empty empty 17 7 0 10 -262144 -1 -1 0
1;
#X floatatom 76 107 5 0 0 0 - - -, f 5;
#X floatatom 136 108 5 0 0 0 - - -, f 5;
#X floatatom 196 107 5 0 0 0 - - -, f 5;
#X floatatom 256 108 5 0 0 0 - - -, f 5;
#X obj 20 136 s m-on;
#X obj 76 137 s m-x;
#X obj 136 137 s m-y;
#X obj 196 137 s m-dx;
#X obj 256 137 s m-dy;
#X obj 200 207 r m-dx;
#X floatatom 200 237 5 0 0 0 - - -, f 5;
#X text 245 237 Mod_freq;
#X obj 200 266 osc~;
#X floatatom 200 367 5 0 0 0 - - -, f 5;
#X obj 200 396 osc~;
#X obj 200 337 r m-dy;
#X obj 200 296 *~;
#X obj 326 236 r m-y;
#X floatatom 326 264 5 0 0 0 - - -, f 5;
#X obj 326 310 r m-on;
#X obj 326 337 tgl 15 0 empty empty empty 17 7 0 10 -262144 -1 -1 0
1;
#X obj 327 361 sel 1 0;
#X msg 327 392 1 10;
#X msg 372 392 0 100;
#X obj 326 422 line~;
#X obj 19 258 r m-x;
#X floatatom 19 294 5 0 0 0 - - -, f 5;
#X text 66 294 Carrier;
#X obj 18 318 +~;
#X obj 18 344 osc~;
#X obj 18 423 *~;
#X obj 17 456 *~;
#X text 371 263 Mod_index;
#X obj 103 502 cnv 15 400 25 empty empty AAU_CPH_Credits: 20 12 1 14
-33173 -262144 0;
#X text 103 530 fourMS \, University of Oslo;
#X obj 20 71 cyclone/mousestate;
#X obj 17 491 outlet~;
#X connect 0 0 1 0;
#X connect 1 0 39 0;
#X connect 2 0 39 0;
#X connect 3 0 8 0;
#X connect 4 0 9 0;
#X connect 5 0 10 0;
#X connect 6 0 11 0;
#X connect 7 0 12 0;
#X connect 13 0 14 0;
#X connect 14 0 16 0;
#X connect 16 0 20 0;
#X connect 17 0 18 0;
#X connect 18 0 34 1;
#X connect 19 0 17 0;
#X connect 20 0 32 1;
#X connect 21 0 22 0;
#X connect 22 0 20 1;
#X connect 23 0 24 0;
#X connect 24 0 25 0;
#X connect 25 0 26 0;
#X connect 25 1 27 0;
#X connect 26 0 28 0;
#X connect 27 0 28 0;
#X connect 28 0 35 1;
#X connect 29 0 30 0;
#X connect 30 0 32 0;
#X connect 32 0 33 0;
#X connect 33 0 34 0;
#X connect 34 0 35 0;
#X connect 35 0 40 0;
#X connect 39 0 3 0;
#X connect 39 1 4 0;
#X connect 39 2 5 0;
#X connect 39 3 6 0;
#X connect 39 4 7 0;
