#N canvas 298 63 1124 712 10;
#X declare -path .;
#X declare -path day1;
#X declare -path day2;
#X declare -path filterview;
#X declare -path SMC10;
#X declare -path SMC12;
#X declare -stdlib zexy;
#X declare -stdlib ggee;
#X declare -stdlib unauthorized;
#X obj 28 555 cnv 15 1024 25 empty empty AAU_CPH_Credits: 20 12 1 14
-33173 -262144 0;
#X obj 28 15 cnv 15 200 40 empty empty Session_1:_PD_Basics 20 12 1
14 -33173 -262144 0;
#X obj 757 18 declare -path .;
#X obj 757 37 declare -path day1;
#X obj 757 56 declare -path day2;
#X text 27 583 SOPI Research Group \, Aalto University \, Finland;
#X obj 268 15 cnv 15 200 40 empty empty Click-it 20 12 1 14 -33173
-262144 0;
#X obj 268 179 cnv 15 200 40 empty empty Mousalizer 20 12 1 14 -33173
-262144 0;
#X obj 268 227 Mousalizer;
#X obj 28 239 cnv 15 200 40 empty empty Session_2:_More_PD 20 12 1
14 -33173 -262144 0;
#X obj 29 398 2.5_sample1;
#X obj 29 425 2.6_sample2;
#X obj 29 455 2.7_fiddle_bonk;
#X obj 29 482 2.8_fiddle2;
#X obj 28 293 2.1_controlobjects;
#X obj 29 318 2.2_sendreceive;
#X obj 29 344 2.3_subpatches_and_abstractions;
#X obj 29 371 2.4_delay;
#X obj 29 63 1.1_objects;
#X obj 29 90 1.2_creating_sound;
#X obj 30 118 1.3_additive;
#X obj 30 145 1.4.1_am_synth;
#X obj 30 172 1.4.2_fm_synth;
#X obj 30 199 1.5_subtractive;
#X obj 267 341 cnv 15 200 40 empty empty Microphone 20 12 1 14 -33173
-262144 0;
#X obj 509 447 Machineomatic;
#X text 26 602 fourMS \, University of Oslo \, Norway;
#X obj 509 15 cnv 15 200 40 empty empty SMC07_Filters 20 12 1 14 -33173
-262144 0;
#X text 241 603 filterview (SMC07): Hans-Christoph Steiner <hans@eds.org>
;
#X obj 561 59 declare -path filterview;
#X obj 510 88 filterview-help;
#X obj 508 342 cnv 15 200 40 empty empty SMC11 20 12 1 14 -33173 -262144
0;
#X obj 509 388 01-MyPluck;
#X obj 509 413 03-SNAC;
#X text 26 621 SNAC (SMC10):;
#X obj 508 182 cnv 15 200 40 empty empty SMC10 20 12 1 14 -33173 -262144
0;
#X obj 758 181 cnv 15 200 40 empty empty SMC12 20 12 1 14 -33173 -262144
0;
#X obj 757 77 declare -path SMC10;
#X obj 757 100 declare -path SMC12;
#X text 765 228 0 Visit to Session_1 PD Basics;
#X obj 766 250 s03-allpass1;
#X obj 766 273 s06-allpass2;
#X obj 766 297 s07-wahwah;
#X obj 766 330 s10-comb;
#X obj 766 350 s11-iircomb;
#X obj 766 370 s12-vardelay;
#X obj 766 390 s15-gardnerverb;
#X obj 766 410 s16-reverb;
#X obj 908 251 vcf~;
#X text 27 646 SMC12: Dan Ellis;
#X text 251 621 http://obiwannabe.co.uk/html/toys/machineomatic/machine-o-matic.html
, f 68;
#X text 115 620 http://www.katjaas.nl;
#X text 136 645 http://www.ee.columbia.edu/~dpwe/e4896/;
#N canvas 0 23 919 419 myFFT 0;
#X obj 61 125 rfft~;
#X obj 51 157 *~;
#X obj 89 155 *~;
#X obj 52 178 +~;
#X obj 53 201 sqrt~;
#X obj 63 45 inlet~;
#X text 58 21 Audio;
#X obj 21 43 inlet;
#X text 24 21 metro;
#X obj 145 45 block~ 1024;
#X obj 23 225 tabwrite~ \$0-freqz_domain;
#N canvas 0 23 450 278 (subpatch) 0;
#X array \$0-freqz_domain 512 float 0;
#X coords 0 45000 511 -1 512 140 1 0 0;
#X restore 196 80 graph;
#X text 356 55 The size of the array=block~/2=512 \, check from properties
;
#X text 191 223 0;
#X text 692 226 511;
#X text 430 222 256;
#X text 730 226 BINS;
#X text 190 239 0;
#X text 417 238 11025;
#X text 680 238 22050;
#X text 729 238 Frequency (Hz);
#X text 628 257 Frequency = FS/2*BIN = FS/BLOCK;
#X connect 0 0 1 0;
#X connect 0 0 1 1;
#X connect 0 1 2 0;
#X connect 0 1 2 1;
#X connect 1 0 3 0;
#X connect 2 0 3 1;
#X connect 3 0 4 0;
#X connect 4 0 10 0;
#X connect 5 0 0 0;
#X connect 7 0 10 0;
#X restore 514 270 pd myFFT;
#X text 511 226 Quick & dirty FFT implementation;
#X text 583 240 Inlets: 1 Metronome;
#X text 655 257 2 Audio;
#X obj 822 619 zexy;
#X obj 688 619 declare -stdlib zexy;
#X text 686 584 Needs: unauthorized + MouseState: cyclonev03-alpha1
+ pddp:;
#X msg 758 122 \; pd dsp 1 \;;
#X msg 828 122 \; pd dsp 0 \;;
#X text 755 156 digital signal processing on/off;
#X obj 687 641 declare -stdlib ggee;
#X obj 688 664 declare -stdlib unauthorized;
#X obj 872 664 unauthorized/spigot~;
#X obj 765 484 output~;
#X obj 765 439 receive~ master-L;
#X obj 858 342 send~ master-L;
#X obj 876 326 s~ master-R;
#X obj 801 460 r~ master-R;
#X text 105 63 GUI;
#X connect 67 0 66 0;
#X connect 70 0 66 1;
