#N canvas 605 22 483 361 10;
#X obj 157 123 inlet~;
#X obj 157 300 outlet~;
#X obj 296 192 *~;
#X obj 157 247 -~;
#X obj 157 192 delwrite~ \$0-del \$1;
#X obj 118 192 *~;
#X text 153 103 Audio in;
#X text 262 103 Gain g;
#X obj 237 123 + \$2;
#X msg 237 103 0;
#X obj 237 83 loadbang;
#X obj 157 224 delread~ \$0-del \$1;
#X text 45 192 g feedback;
#X text 26 6 allpass.pd;
#X text 24 22 Gardner-style allpass;
#X text 23 39 Takes 2 creation args:;
#X text 26 56 \$1 \, \$2: delay and gain of allpass;
#X text 331 191 -g feedforward;
#X connect 0 0 2 0;
#X connect 0 0 4 0;
#X connect 2 0 3 1;
#X connect 3 0 1 0;
#X connect 3 0 5 0;
#X connect 5 0 4 0;
#X connect 8 0 2 1;
#X connect 8 0 5 1;
#X connect 9 0 8 0;
#X connect 10 0 9 0;
#X connect 11 0 3 0;
