#N canvas 480 125 347 340 10;
#X obj 100 189 inlet~;
#X obj 143 189 inlet~;
#X obj 144 80 tgl 15 0 empty empty empty 17 7 0 10 -262144 -1 -1 0
1;
#X obj 161 80 tgl 15 0 empty empty empty 17 7 0 10 -262144 -1 -1 0
1;
#X msg 97 150 0;
#X msg 138 150 0;
#X obj 97 129 sel 1;
#X obj 138 129 sel 1;
#X obj 100 225 *~;
#X obj 143 225 *~;
#X obj 172 256 outlet~;
#X obj 186 189 inlet~;
#X obj 229 189 inlet~;
#X obj 178 80 tgl 15 0 empty empty empty 17 7 0 10 -262144 -1 -1 0
1;
#X obj 195 80 tgl 15 0 empty empty empty 17 7 0 10 -262144 -1 -1 0
1;
#X msg 178 150 0;
#X msg 219 150 0;
#X obj 178 129 sel 1;
#X obj 219 129 sel 1;
#X obj 186 225 *~;
#X obj 229 225 *~;
#X obj 144 33 loadbang;
#X msg 144 54 1;
#X text 17 -20 audiosel;
#X text 18 -2 Select between 4 audio inputs.;
#X text 17 11 Selecting one disables others.;
#X text 23 294 2010-02-24 Dan Ellis dpwe@ee.columbia.edu;
#X obj 243 -14 inlet;
#X obj 243 9 sel 1;
#X obj 243 29 sel 2;
#X obj 243 49 sel 3;
#X obj 243 69 sel 4;
#X connect 0 0 8 0;
#X connect 1 0 9 0;
#X connect 2 0 6 0;
#X connect 2 0 8 1;
#X connect 3 0 7 0;
#X connect 3 0 9 1;
#X connect 4 0 3 0;
#X connect 4 0 13 0;
#X connect 4 0 14 0;
#X connect 5 0 2 0;
#X connect 5 0 13 0;
#X connect 5 0 14 0;
#X connect 6 0 4 0;
#X connect 7 0 5 0;
#X connect 8 0 10 0;
#X connect 9 0 10 0;
#X connect 11 0 19 0;
#X connect 12 0 20 0;
#X connect 13 0 17 0;
#X connect 13 0 19 1;
#X connect 14 0 18 0;
#X connect 14 0 20 1;
#X connect 15 0 14 0;
#X connect 15 0 2 0;
#X connect 15 0 3 0;
#X connect 16 0 13 0;
#X connect 16 0 2 0;
#X connect 16 0 3 0;
#X connect 17 0 15 0;
#X connect 18 0 16 0;
#X connect 19 0 10 0;
#X connect 20 0 10 0;
#X connect 21 0 22 0;
#X connect 22 0 2 0;
#X connect 27 0 28 0;
#X connect 28 0 2 0;
#X connect 28 1 29 0;
#X connect 29 0 3 0;
#X connect 29 1 30 0;
#X connect 30 0 13 0;
#X connect 30 1 31 0;
#X connect 31 0 14 0;
#X coords 0 -1 1 1 127 21 1 85 77;
