#N canvas 275 33 448 369 10;
#X text 26 18 ncounter.pd;
#X text 23 36 encapsulation of simple counter;
#X text 30 54 2011-09-14 Dan Ellis dpwe@ee.columbia.edu;
#X obj 134 115 bng 15 250 50 0 empty empty empty 17 7 0 10 -262144
-1 -1;
#X obj 134 133 f;
#X obj 159 133 + 1;
#X floatatom 134 155 5 0 0 0 - - -;
#X obj 144 200 s n;
#X text 26 95 Time (n) counter;
#X text 56 114 Advance time;
#X text 68 155 Current n;
#X msg 100 133 -1;
#X obj 48 133 r reset;
#X obj 134 95 r next;
#X text 183 169 newstep is sent just;
#X text 183 180 before n increments;
#X obj 103 226 outlet;
#X obj 5 132 inlet;
#X obj 179 95 inlet;
#X obj 134 174 t f f f;
#X obj 61 197 s poststep;
#X obj 173 197 s prestep;
#X obj 216 274 tabwrite time;
#X obj 216 233 split 0 9999;
#X msg 216 253 5.5;
#X connect 3 0 4 0;
#X connect 4 0 6 0;
#X connect 5 0 4 1;
#X connect 6 0 5 0;
#X connect 6 0 19 0;
#X connect 11 0 6 0;
#X connect 12 0 11 0;
#X connect 13 0 3 0;
#X connect 17 0 11 0;
#X connect 18 0 4 0;
#X connect 19 0 20 0;
#X connect 19 1 7 0;
#X connect 19 1 16 0;
#X connect 19 1 23 0;
#X connect 19 2 21 0;
#X connect 19 2 22 1;
#X connect 23 0 24 0;
#X connect 24 0 22 0;
