#N canvas 560 75 473 393 10;
#X obj 159 142 inlet~;
#X obj 159 318 outlet~;
#X obj 313 210 *~;
#X obj 159 265 -~;
#X obj 159 214 delwrite~ \$0-del \$1;
#X obj 99 214 *~;
#X text 155 122 Audio in;
#X text 269 141 Gain g;
#X msg 239 121 0;
#X obj 239 101 loadbang;
#X obj 239 141 + \$2;
#X obj 159 190 allpass \$3 \$4;
#X obj 159 239 delread~ \$0-del \$1;
#X text 14 12 Gardner-style nested allpass;
#X text 13 29 Takes 4 creation args:;
#X text 10 49 \$1 \, \$2: delay and gain of outer allpass;
#X text 11 64 \$3 \, \$4: delay and gain of inner allpass;
#X text 16 -4 nestedallpass.pd;
#X text 17 366 2010-03-01 Dan Ellis dpwe@ee.columbia.edu;
#X text 341 211 -g feed forward;
#X text 31 215 g feedback;
#X connect 0 0 2 0;
#X connect 2 0 3 1;
#X connect 3 0 1 0;
#X connect 3 0 5 0;
#X connect 5 0 11 0;
#X connect 8 0 10 0;
#X connect 9 0 8 0;
#X connect 10 0 2 1;
#X connect 10 0 5 1;
#X connect 11 0 4 0;
#X connect 12 0 3 0;
