#N canvas 519 64 519 402 10;
#X obj 23 140 output~;
#X obj 298 136 bng 15 250 50 0 empty empty empty 17 7 0 10 -262144
-1 -1;
#N canvas 0 22 450 300 (subpatch) 0;
#X array \$0-voice 153259 float 2;
#X coords 0 1 153259 -1 200 140 1 0 0;
#X restore 224 50 graph;
#X obj 34 99 +~;
#X text 35 -144 Varying delay;
#X floatatom 275 -122 0 0 0 0 - - -;
#X obj 275 -74 line~;
#X obj 275 -98 pack 0 100;
#X floatatom 221 -150 0 0 0 0 - - -;
#X obj 221 -51 *~;
#X obj 221 -123 / 100;
#X obj 221 -75 +~ 1;
#X obj 221 -99 osc~ 0;
#X obj 221 -27 +~ 1.46;
#X text 300 -124 <-- cycle depth (msec);
#X floatatom 391 -7 5 0 0 0 - - -;
#X obj 390 -26 snapshot~;
#X obj 391 -46 metro 100;
#X obj 391 -64 tgl 15 0 empty empty empty 17 7 0 10 -262144 -1 -1 1
1;
#X text 221 16 1.46 ms is one block of 64 samples @ 44.1 kHz;
#X obj 391 -83 loadbang;
#X text 429 -7 Actual delay;
#X text 249 -147 <-- cycle frequency (hundredths of a Hz);
#X obj 34 -114 bng 15 250 50 0 empty empty empty 17 7 0 10 -262144
-1 -1;
#X obj 116 -116 tgl 15 0 empty empty empty 17 7 0 10 -262144 -1 -1
0 1;
#X obj 64 -68 noise~;
#X obj 64 -50 *~ 0.1;
#X obj 34 -30 audiosel~;
#X obj 34 -90 playloop \$0-voice;
#X obj 56 7 delwrite~ \$0-del 1000;
#X obj 221 -3 vd~ \$0-del;
#X obj 298 162 loadsoundfile \$0-voice;
#X connect 1 0 31 0;
#X connect 3 0 0 0;
#X connect 3 0 0 1;
#X connect 5 0 7 0;
#X connect 6 0 9 1;
#X connect 7 0 6 0;
#X connect 8 0 10 0;
#X connect 9 0 13 0;
#X connect 10 0 12 0;
#X connect 11 0 9 0;
#X connect 12 0 11 0;
#X connect 13 0 16 0;
#X connect 13 0 30 0;
#X connect 16 0 15 0;
#X connect 17 0 16 0;
#X connect 18 0 17 0;
#X connect 20 0 18 0;
#X connect 23 0 28 0;
#X connect 24 0 28 1;
#X connect 25 0 26 0;
#X connect 26 0 27 1;
#X connect 27 0 3 0;
#X connect 27 0 29 0;
#X connect 28 0 27 0;
#X connect 30 0 3 1;
