#N canvas 438 34 1062 823 10;
#X obj 35 188 spigot;
#X msg 57 163 0;
#X msg 90 164 1;
#X floatatom 36 138 5 0 0 0 - - -;
#X floatatom 34 220 5 0 0 0 - - -;
#X text 84 191 spigot object;
#X obj 331 82 moses 6;
#X floatatom 330 38 5 0 0 0 - - -;
#X floatatom 331 110 5 0 0 0 - - -;
#X floatatom 375 109 5 0 0 0 - - -;
#X floatatom 385 58 5 0 0 0 - - -;
#X msg 355 57 10;
#X text 427 112 smaller or;
#X text 428 122 equal and bigger;
#X msg 43 55 10;
#X obj 43 82 print;
#X floatatom 42 31 5 0 0 0 - - -;
#X msg 100 55 \$1;
#X obj 99 80 print;
#X floatatom 101 34 5 0 0 0 - - -;
#X obj 138 287 sel;
#X obj 35 311 select 5 4 12 39;
#X obj 36 335 bng 15 250 50 0 empty empty empty 0 -6 0 8 -262144 -1
-1;
#X obj 60 335 bng 15 250 50 0 empty empty empty 0 -6 0 8 -262144 -1
-1;
#X obj 87 335 bng 15 250 50 0 empty empty empty 0 -6 0 8 -262144 -1
-1;
#X obj 114 336 bng 15 250 50 0 empty empty empty 0 -6 0 8 -262144 -1
-1;
#X floatatom 141 339 5 0 0 0 - - -;
#X floatatom 35 286 5 0 0 0 - - -;
#X text 35 359 test for two equal numbers;
#X obj 328 183 key;
#X floatatom 327 213 5 0 0 0 - - -;
#X obj 326 241 == 102;
#X floatatom 325 271 5 0 0 0 - - -;
#X obj 383 241 >= 20;
#X floatatom 383 213 5 0 0 0 - - -;
#X floatatom 383 271 5 0 0 0 - - -;
#X obj 665 66 expr if($f1 < $f2 \, $f3 \, $f4);
#X floatatom 665 39 5 0 0 0 - - -;
#X floatatom 727 39 5 0 0 0 - - -;
#X floatatom 791 39 5 0 0 0 - - -;
#X floatatom 843 37 5 0 0 0 - - -;
#X floatatom 666 94 5 0 0 0 - - -;
#X text 770 225 Math IF conditions;
#X obj 665 151 expr $f1 \; if ($f1 < 50 \, $f1 * 5 \, 0) \; if ($f1
>= 50 \, $f1 *10 \, 0);
#X floatatom 666 202 5 0 0 0 - - -;
#X floatatom 752 201 5 0 0 0 - - -;
#X floatatom 830 205 5 0 0 0 - - -;
#X floatatom 664 129 5 0 0 0 - - -;
#X obj 35 451 delay 3000;
#X obj 34 421 bng 15 250 50 0 empty empty empty 0 -6 0 8 -262144 -1
-1;
#X obj 35 501 bng 15 250 50 0 empty empty empty 0 -6 0 8 -262144 -1
-1;
#X obj 148 448 pipe 3000;
#X floatatom 149 424 5 0 0 0 - - -;
#X floatatom 149 473 5 0 0 0 - - -;
#X text 119 497 pass a floating message;
#X text 122 510 after a delay time;
#X text 41 468 pass a bang;
#X obj 69 614 pack f f s f;
#X obj 69 645 print;
#X floatatom 31 572 5 0 0 0 - - -;
#X floatatom 78 565 5 0 0 0 - - -;
#X floatatom 171 584 5 0 0 0 - - -;
#X obj 121 585 symbol;
#X obj 40 738 unpack f f s f;
#X floatatom 39 768 5 0 0 0 - - -;
#X floatatom 73 786 5 0 0 0 - - -;
#X floatatom 167 774 5 0 0 0 - - -;
#X symbolatom 96 760 10 0 0 0 - - -;
#X text 155 802 split a message;
#X text 133 648 combine messages;
#X obj 322 364 t b f b;
#X floatatom 322 336 5 0 0 0 - - -;
#X obj 387 393 bng 15 250 50 0 empty empty empty 0 -6 0 8 -262144 -1
-1;
#X obj 321 395 bng 15 250 50 0 empty empty empty 0 -6 0 8 -262144 -1
-1;
#X floatatom 343 395 5 0 0 0 - - -;
#X obj 79 586 t b f;
#X text 415 383 control message order;
#X text 432 271 key representation;
#X obj 687 340 route 0 1 2;
#X obj 704 317 pack;
#X floatatom 709 279 5 0 0 0 - - -;
#X floatatom 658 368 5 0 0 0 - - -;
#X floatatom 704 368 5 0 0 0 - - -;
#X floatatom 750 368 5 0 0 0 - - -;
#X floatatom 772 350 5 0 0 0 - - -;
#X obj 708 298 t b f;
#X msg 668 290 2;
#X text 390 85 moses object;
#X text 155 313 select object;
#X text 369 184 key object;
#X text 812 88 expr object;
#X text 216 442 pipe;
#X text 215 454 object;
#X text 387 361 trigger object;
#X text 153 614 pack object;
#X text 141 738 unpack object;
#X text 770 333 route object;
#X text 799 364 routes the data;
#X text 799 374 flow;
#X obj 464 187 keyname;
#X obj 481 214 symbol;
#X symbolatom 456 235 10 0 0 0 - - -;
#X floatatom 432 214 5 0 0 0 - - -;
#X msg 41 705 12 29 mmatic 55;
#X msg 122 561 mmatic;
#X obj 317 495 bng 15 250 50 0 empty empty empty 8 -8 0 10 -262144
-1 -1;
#X obj 357 629 bng 15 250 50 0 empty empty empty 8 -8 0 10 -262144
-1 -1;
#X floatatom 357 504 4 0 0 0 - - -;
#X floatatom 407 531 4 0 0 0 - - -;
#X floatatom 357 606 4 0 0 0 - - -;
#X floatatom 457 553 4 0 0 0 - - -;
#X text 307 457 for++;
#X obj 357 575 for++ 10 20 200;
#X obj 403 609 print;
#X msg 317 514 start;
#X msg 317 534 stop;
#X text 356 490 <int> first number;
#X text 407 515 <int> last number;
#X obj 457 609 bng 15 250 50 0 empty empty empty 8 -8 0 10 -262144
-1 -1;
#X text 455 624 finished;
#X text 446 536 <float> increment-delay in ms;
#X text 377 463 increment-step-size is allways 1 or -1;
#X text 359 452 counter with its own interval-timer;
#X obj 307 749 until;
#X msg 307 702 100;
#X obj 307 769 print i;
#X msg 335 709 3;
#X msg 363 716 42;
#X msg 436 703 bang;
#X obj 436 724 until;
#X text 467 703 start;
#X obj 436 746 f;
#X obj 465 746 + 1;
#X obj 511 748 sel 0;
#X obj 436 790 print;
#X obj 465 768 mod 10;
#X msg 399 699 3;
#X text 306 674 UNTIL - LOOPing mechanism;
#X obj 664 502 f;
#X obj 693 502 + 1;
#X obj 718 503 mod 10;
#X msg 663 475 bang;
#X floatatom 663 529 5 0 0 0 - - -;
#X floatatom 708 476 5 0 0 0 - - -;
#X floatatom 755 480 5 0 0 0 - - -;
#X obj 28 108 cnv 15 200 20 empty empty empty 20 12 0 14 -228856 -262144
0;
#X text 47 110 SPIGOT;
#X obj 323 3 cnv 15 200 20 empty empty empty 20 12 0 14 -228856 -262144
0;
#X text 342 5 MOSES;
#X obj 321 155 cnv 15 200 20 empty empty empty 20 12 0 14 -228856 -262144
0;
#X text 340 157 KEY (keyboard);
#X obj 31 257 cnv 15 200 20 empty empty empty 20 12 0 14 -228856 -262144
0;
#X obj 30 393 cnv 15 200 20 empty empty empty 20 12 0 14 -228856 -262144
0;
#X text 46 395 DELAY & PIPE;
#X obj 31 534 cnv 15 200 20 empty empty empty 20 12 0 14 -228856 -262144
0;
#X text 47 536 PACK & UNPACK;
#X obj 313 425 cnv 15 200 20 empty empty empty 20 12 0 14 -228856 -262144
0;
#X text 332 427 FOR & UNTIL;
#X obj 32 5 cnv 15 200 20 empty empty empty 20 12 0 14 -228856 -262144
0;
#X text 51 7 DOLLARSIGN;
#X obj 659 7 cnv 15 200 20 empty empty empty 20 12 0 14 -228856 -262144
0;
#X text 678 9 EXPRESSIONS;
#X obj 662 252 cnv 15 200 20 empty empty empty 20 12 0 14 -228856 -262144
0;
#X obj 661 419 cnv 15 200 20 empty empty empty 20 12 0 14 -228856 -262144
0;
#X text 680 421 COUNTER;
#X text 660 454 Manual counter;
#X text 661 564 Counter object;
#X obj 666 613 metro 300;
#X obj 666 590 tgl 15 0 empty empty empty 0 -6 0 8 -262144 -1 -1 0
1;
#X floatatom 666 658 10 0 0 0 - - -;
#X text 736 659 number of bangs;
#X floatatom 724 592 5 0 0 0 - - -;
#X text 50 259 SELECT;
#X text 92 224 pass or block messages;
#X obj 320 301 cnv 15 200 20 empty empty empty 20 12 0 14 -228856 -262144
0;
#X text 339 303 TRIGGER;
#X obj 637 712 cnv 15 400 25 empty empty AAU_CPH_Credits: 20 12 1 14
-33173 -262144 0;
#X text 654 738 SOPI Research Group \, Aalto University \, Finland
;
#X text 681 254 ROUTING;
#X text 407 426 (LOOPING);
#X obj 666 635 cyclone/counter;
#X obj 103 135 unauthorized/spigot~;
#X connect 0 0 4 0;
#X connect 1 0 0 1;
#X connect 2 0 0 1;
#X connect 3 0 0 0;
#X connect 6 0 8 0;
#X connect 6 1 9 0;
#X connect 7 0 6 0;
#X connect 10 0 6 1;
#X connect 11 0 6 1;
#X connect 14 0 15 0;
#X connect 16 0 14 0;
#X connect 17 0 18 0;
#X connect 19 0 17 0;
#X connect 21 0 22 0;
#X connect 21 1 23 0;
#X connect 21 2 24 0;
#X connect 21 3 25 0;
#X connect 21 4 26 0;
#X connect 27 0 21 0;
#X connect 29 0 30 0;
#X connect 30 0 31 0;
#X connect 31 0 32 0;
#X connect 33 0 35 0;
#X connect 34 0 33 0;
#X connect 36 0 41 0;
#X connect 37 0 36 0;
#X connect 38 0 36 1;
#X connect 39 0 36 2;
#X connect 40 0 36 3;
#X connect 43 0 44 0;
#X connect 43 1 45 0;
#X connect 43 2 46 0;
#X connect 47 0 43 0;
#X connect 48 0 50 0;
#X connect 49 0 48 0;
#X connect 51 0 53 0;
#X connect 52 0 51 0;
#X connect 57 0 58 0;
#X connect 59 0 57 0;
#X connect 60 0 75 0;
#X connect 61 0 57 3;
#X connect 62 0 57 2;
#X connect 63 0 64 0;
#X connect 63 1 65 0;
#X connect 63 2 67 0;
#X connect 63 3 66 0;
#X connect 70 0 73 0;
#X connect 70 1 74 0;
#X connect 70 2 72 0;
#X connect 71 0 70 0;
#X connect 75 0 57 0;
#X connect 75 1 57 1;
#X connect 78 0 81 0;
#X connect 78 1 82 0;
#X connect 78 2 83 0;
#X connect 78 3 84 0;
#X connect 79 0 78 0;
#X connect 80 0 85 0;
#X connect 85 0 79 0;
#X connect 85 1 79 1;
#X connect 86 0 79 0;
#X connect 99 0 102 0;
#X connect 99 1 100 0;
#X connect 100 0 101 0;
#X connect 103 0 63 0;
#X connect 104 0 62 0;
#X connect 105 0 112 0;
#X connect 107 0 112 0;
#X connect 108 0 112 1;
#X connect 109 0 106 0;
#X connect 110 0 112 2;
#X connect 112 0 109 0;
#X connect 112 0 113 0;
#X connect 112 1 118 0;
#X connect 114 0 112 0;
#X connect 115 0 112 0;
#X connect 123 0 125 0;
#X connect 124 0 123 0;
#X connect 126 0 123 0;
#X connect 127 0 123 0;
#X connect 128 0 129 0;
#X connect 129 0 131 0;
#X connect 131 0 132 0;
#X connect 131 0 134 0;
#X connect 132 0 135 0;
#X connect 133 0 129 1;
#X connect 135 0 131 1;
#X connect 135 0 133 0;
#X connect 136 0 129 0;
#X connect 138 0 139 0;
#X connect 138 0 142 0;
#X connect 139 0 140 0;
#X connect 140 0 138 1;
#X connect 141 0 138 0;
#X connect 143 0 139 1;
#X connect 144 0 140 1;
#X connect 167 0 180 0;
#X connect 168 0 167 0;
#X connect 171 0 167 1;
#X connect 180 0 169 0;
