#N canvas 378 231 709 508 10;
#X obj 35 55 adc~;
#X obj 307 494 dac~;
#X obj 51 305 *~;
#X floatatom 50 144 5 0 2000 1 delaytime - -, f 5;
#X obj 36 335 +~;
#X obj 64 282 vline~;
#X msg 64 257 \$1 20;
#X obj 64 208 vsl 20 40 0 1 0 0 empty empty empty 0 -9 0 10 -262144
-1 -1 0 1;
#X obj 321 403 vline~;
#X msg 321 378 \$1 20;
#X obj 321 328 vsl 20 40 0 1 0 0 empty empty empty 0 -9 0 10 -262144
-1 -1 0 1;
#X obj 306 449 *~;
#X msg 340 38 \; pd dsp \$1 \;;
#X obj 341 16 tgl 15 0 empty empty empty 17 7 0 10 -262144 -1 -1 0
1;
#X text 93 223 feedback;
#X text 345 355 main volume;
#X text 46 114 This delay effect - no pitch change;
#X obj 452 329 +~;
#X obj 467 301 *~;
#X floatatom 465 94 5 0 2000 1 delaytime - -, f 5;
#X obj 480 330 spigot~;
#X obj 519 311 tgl 15 0 empty empty empty 17 7 0 10 -262144 -1 -1 0
1;
#X text 542 312 Delay on/off;
#X obj 483 279 vline~;
#X msg 483 254 \$1 20;
#X obj 483 205 vsl 20 40 0 1 0 0 empty empty empty 0 -9 0 10 -262144
-1 -1 0 1;
#X text 512 220 feedback;
#X text 464 59 This delay effect - with pitch change;
#X obj 68 334 spigot~;
#X obj 107 314 tgl 15 0 empty empty empty 17 7 0 10 -262144 -1 -1 0
1;
#X text 130 315 Delay on/off;
#X obj 35 3 cnv 15 200 20 empty empty empty 20 12 0 14 -2867 -262144
0;
#X text 54 5 DELAY;
#X text 74 55 Analog to digital converter (audio input);
#X obj 611 117 sig~;
#X floatatom 609 87 5 0 0 0 - - -, f 5;
#X msg 465 114 \$1 50;
#X obj 466 136 vline~;
#X obj 36 421 delwrite~ \$0-delay1 1000;
#X obj 51 168 delread~ \$0-delay1 1000;
#X obj 467 160 vd~ \$0-delay2;
#X obj 453 422 delwrite~ \$0-delay2 2000;
#X connect 0 0 4 0;
#X connect 0 0 17 0;
#X connect 2 0 4 1;
#X connect 2 0 28 0;
#X connect 3 0 39 0;
#X connect 4 0 38 0;
#X connect 5 0 2 1;
#X connect 6 0 5 0;
#X connect 7 0 6 0;
#X connect 8 0 11 1;
#X connect 9 0 8 0;
#X connect 10 0 9 0;
#X connect 11 0 1 0;
#X connect 11 0 1 1;
#X connect 13 0 12 0;
#X connect 17 0 41 0;
#X connect 18 0 17 1;
#X connect 18 0 20 0;
#X connect 19 0 36 0;
#X connect 20 1 11 0;
#X connect 21 0 20 1;
#X connect 23 0 18 1;
#X connect 24 0 23 0;
#X connect 25 0 24 0;
#X connect 28 1 11 0;
#X connect 29 0 28 1;
#X connect 35 0 34 0;
#X connect 36 0 37 0;
#X connect 37 0 40 0;
#X connect 39 0 2 0;
#X connect 40 0 18 0;
#X coords 0 -1 1 1 20 24 1 340 13;
