#N canvas 704 220 790 626 10;
#X msg 23 -61 \; pd dsp \$1 \;;
#X obj 23 -83 tgl 15 0 empty empty empty 17 7 0 10 -262144 -1 -1 0
1;
#N canvas 0 22 450 300 (subpatch) 0;
#X array \$0-sample 231492 float 2;
#X coords 0 1 231492 -1 200 140 1;
#X restore 25 26 graph;
#X obj 334 80 soundfiler;
#X obj 335 -15 openpanel;
#X obj 335 -34 bng 15 250 50 0 empty empty empty 17 7 0 10 -262144
-1 -1;
#X text 396 -16 open file dialog;
#X text 504 10 read the file and resize the array;
#X text 565 37 you can also write the name of the file;
#X text 405 77 writes the file to the array;
#X obj 22 224 cnv 15 200 20 empty empty empty 20 12 0 14 -2867 -262144
0;
#X obj 21 -13 cnv 15 200 20 empty empty empty 20 12 0 14 -2867 -262144
0;
#X text 40 -11 Load a sample to an array;
#X text 41 226 TABPLAY~ (simple playback);
#X obj 31 356 dac~;
#X text 23 168 we are loading the sample to just one array (mono);
#X obj 29 267 bng 15 250 50 0 empty empty empty 17 7 0 10 -262144 -1
-1;
#X obj 116 321 bng 15 250 50 0 empty empty empty 17 7 0 10 -262144
-1 -1;
#X text 117 337 A bang is sent at the end of the file.;
#X obj 162 293 spigot;
#X obj 194 272 tgl 15 0 empty empty empty 17 7 0 10 -262144 -1 -1 0
1;
#X text 213 270 loop on/off;
#X text 116 353 Can be used to loop the file.;
#X obj 357 225 cnv 15 200 20 empty empty empty 20 12 0 14 -2867 -262144
0;
#X text 376 227 TABREAD4~ (advanced playback);
#X obj 368 471 dac~;
#X floatatom 385 102 12 0 0 0 - - -;
#X text 462 102 number of samples;
#X obj 368 346 phasor~;
#X obj 368 398 *~;
#X obj 385 378 r samplesize;
#X obj 386 127 s samplesize;
#X obj 332 148 expr 44100 / $f1;
#X floatatom 331 171 5 0 0 0 - - -;
#X obj 331 195 s rate;
#X floatatom 368 304 5 0 0 0 - - -;
#X text 368 170 playback rate;
#X msg 407 322 0;
#X text 441 325 go to the beginning.;
#X obj 371 284 hsl 128 15 -0.5 0.5 0 0 empty empty empty -2 -8 0 10
-262144 -1 -1 0 1;
#X obj 367 260 r rate;
#X obj 303 142 bng 15 250 50 0 empty empty empty 17 7 0 10 -262144
-1 -1;
#X msg 320 283 0;
#X text 314 266 stop;
#X obj 30 297 tabplay~ \$0-sample;
#X msg 335 12 read -resize \$1 \$0-sample;
#X msg 347 40 read -resize break.wav \$0-sample;
#X obj 367 430 tabread4~ \$0-sample;
#X connect 1 0 0 0;
#X connect 3 0 32 0;
#X connect 3 0 26 0;
#X connect 4 0 45 0;
#X connect 5 0 4 0;
#X connect 16 0 44 0;
#X connect 17 0 19 0;
#X connect 19 0 16 0;
#X connect 20 0 19 1;
#X connect 26 0 31 0;
#X connect 28 0 29 0;
#X connect 29 0 47 0;
#X connect 30 0 29 1;
#X connect 32 0 33 0;
#X connect 33 0 34 0;
#X connect 35 0 28 0;
#X connect 37 0 28 1;
#X connect 39 0 35 0;
#X connect 40 0 39 0;
#X connect 41 0 33 0;
#X connect 42 0 28 0;
#X connect 44 0 14 0;
#X connect 44 0 14 1;
#X connect 44 1 17 0;
#X connect 45 0 3 0;
#X connect 46 0 3 0;
#X connect 47 0 25 0;
#X connect 47 0 25 1;
