#N canvas 789 218 547 361 10;
#X obj 76 43 loadbang;
#X symbolatom 76 126 15 0 0 0 - - -;
#X obj 175 87 f \$2;
#X floatatom 175 127 5 0 0 0 - - -;
#X obj 218 85 f \$3;
#X floatatom 218 127 5 0 0 0 - - -;
#X obj 76 87 symbol \$1;
#X obj 116 208 cnv 15 400 100 empty empty empty 20 12 0 14 -175625
-66577 0;
#X text 153 252 Media Lab \, Department of Media;
#X text 152 238 Sound and Music Computing - AAU-CPH Credits: SOPI Research
Group;
#X text 154 267 Aalto University School of Arts \, Design and Architecture
;
#X connect 0 0 2 0;
#X connect 0 0 4 0;
#X connect 0 0 6 0;
#X connect 2 0 3 0;
#X connect 4 0 5 0;
#X connect 6 0 1 0;
