#N canvas 660 183 564 403 10;
#X floatatom 148 160 5 0 0 0 - - -;
#X obj 108 124 vsl 20 50 0 40 0 0 empty empty empty 0 -9 0 10 -262144
-1 -1 0 1;
#X obj 128 250 cnv 15 400 100 empty empty empty 20 12 0 14 -175625
-66577 0;
#X text 165 294 Media Lab \, Department of Media;
#X text 164 280 Sound and Music Computing - AAU-CPH Credits: SOPI Research
Group;
#X text 166 309 Aalto University School of Arts \, Design and Architecture
;
#X connect 1 0 0 0;
#X coords 0 -1 1 1 100 79 1 100 100;
