#N canvas 225 23 539 407 10;
#N canvas 234 193 450 300 subpatch 0;
#X obj 78 67 osc~ 400;
#X obj 66 111 dac~;
#X obj 58 38 receive freq;
#X connect 0 0 1 0;
#X connect 0 0 1 1;
#X connect 2 0 0 0;
#X restore 6 90 pd subpatch;
#X obj 7 54 s freq;
#X msg 7 23 500;
#N canvas 514 80 450 300 link 0;
#X obj 40 39 inlet;
#X obj 40 124 outlet;
#X obj 113 42 inlet~;
#X obj 113 126 outlet~;
#X connect 0 0 1 0;
#X connect 2 0 3 0;
#X restore 391 240 pd link;
#X floatatom 391 209 5 0 0 0 - - -;
#X floatatom 392 309 5 0 0 0 - - -;
#X obj 438 278 dac~;
#X obj 117 252 *~;
#X obj 117 286 dac~;
#X obj 117 152 osc~ 400;
#X floatatom 176 40 5 0 1 0 - - -;
#X obj 176 67 smoothVol~ 160;
#X obj 276 68 smoothVol~ 10;
#X text 53 51 Send into subpatch;
#X obj 433 204 osc~;
#X floatatom 433 179 5 0 0 0 - - -;
#X connect 2 0 1 0;
#X connect 3 0 5 0;
#X connect 3 1 6 0;
#X connect 3 1 6 1;
#X connect 4 0 3 0;
#X connect 7 0 8 0;
#X connect 7 0 8 1;
#X connect 9 0 7 0;
#X connect 10 0 11 0;
#X connect 11 0 7 1;
#X connect 14 0 3 1;
#X connect 15 0 14 0;
